<svg xmlns="http://www.w3.org/2000/svg" xmlns:xlink="http://www.w3.org/1999/xlink" width="128" height="128"><defs><linearGradient x1="150.961" y1="192.352" x2="112.031" y2="137.273" xlink:href="#a" gradientUnits="userSpaceOnUse" gradientTransform="matrix(.367 0 0 .37 -2.224 924.391)"/><linearGradient id="a"><stop offset="0" stop-color="#ffd43b"/><stop offset="1" stop-color="#ffe873"/></linearGradient><linearGradient x1="26.649" y1="20.604" x2="135.665" y2="114.398" xlink:href="#b" gradientUnits="userSpaceOnUse" gradientTransform="matrix(.563 0 0 .568 -9.4 -5.305)"/><linearGradient id="b"><stop offset="0" stop-color="#5a9fd4"/><stop offset="1" stop-color="#306998"/></linearGradient><linearGradient x1="26.649" y1="20.604" x2="135.665" y2="114.398" xlink:href="#b" gradientUnits="userSpaceOnUse" gradientTransform="matrix(.367 0 0 .37 -2.224 924.391)"/><linearGradient x1="150.961" y1="192.352" x2="112.031" y2="137.273" xlink:href="#c" gradientUnits="userSpaceOnUse" gradientTransform="matrix(.563 0 0 .568 5.947 885.47)"/><linearGradient id="c"><stop offset="0" stop-color="#ffd43b"/><stop offset="1" stop-color="#ffe873"/></linearGradient><linearGradient x1="26.649" y1="20.604" x2="135.665" y2="114.398" xlink:href="#d" gradientUnits="userSpaceOnUse" gradientTransform="matrix(.563 0 0 .568 -9.4 -5.305)"/><linearGradient id="d"><stop offset="0" stop-color="#5a9fd4"/><stop offset="1" stop-color="#306998"/></linearGradient><linearGradient x1="26.649" y1="20.604" x2="135.665" y2="114.398" xlink:href="#d" gradientUnits="userSpaceOnUse" gradientTransform="matrix(.563 0 0 .568 5.947 885.47)"/><linearGradient x1="26.649" y1="20.604" x2="135.665" y2="114.398" id="e" xlink:href="#d" gradientUnits="userSpaceOnUse" gradientTransform="matrix(.563 0 0 .568 5.947 885.47)"/><linearGradient x1="150.961" y1="192.352" x2="112.031" y2="137.273" id="f" xlink:href="#c" gradientUnits="userSpaceOnUse" gradientTransform="matrix(.563 0 0 .568 5.947 885.47)"/></defs><g><path d="M62.078 16.768c-3.676.017-7.186.33-10.275.877-9.1 1.608-10.752 4.973-10.752 11.178v8.196h21.505v2.73H32.98c-6.25 0-11.72 3.757-13.433 10.903-1.974 8.19-2.062 13.302 0 21.854 1.53 6.366 5.18 10.902 11.43 10.902h7.392v-9.825c0-7.098 6.14-13.358 13.433-13.358H73.28c5.98 0 10.753-4.923 10.753-10.928V28.822c0-5.827-4.916-10.205-10.752-11.178-3.693-.614-7.525-.894-11.202-.877zm2.15 886.997c2.22 0 4.035 1.844 4.035 4.11 0 2.26-1.814 4.085-4.035 4.085-2.23 0-4.035-1.826-4.035-4.085 0-2.266 1.806-4.11 4.035-4.11z" fill="url(#e)"/><path d="M86.715 39.75v9.55c0 7.402-6.276 13.633-13.434 13.633H51.804c-5.884 0-10.752 5.036-10.752 10.928v20.477c0 5.827 5.07 9.255 10.753 10.927 6.807 2 13.334 2.363 21.478 0 5.415-1.568 10.753-4.722 10.753-10.927V86.14H62.555v-2.73H94.785c6.25 0 8.578-4.36 10.752-10.903 2.245-6.736 2.15-13.213 0-21.854-1.545-6.222-4.494-10.902-10.752-10.902h-8.07zm7.78 937.934c2.23 0 4.036 1.827 4.036 4.085 0 2.266-1.805 4.11-4.034 4.11-2.22 0-4.035-1.844-4.035-4.11 0-2.26 1.815-4.086 4.036-4.086z" fill="url(#f)"/><path fill="none" d="M45.804 23.036h10v8.84h-10z"/></g></svg>